<?xml version="1.0" standalone="no"?>
<!DOCTYPE svg PUBLIC "-//W3C//DTD SVG 20010904//EN"
 "http://www.w3.org/TR/2001/REC-SVG-20010904/DTD/svg10.dtd">
<svg version="1.0" xmlns="http://www.w3.org/2000/svg"
 width="300.000000pt" height="400.000000pt" viewBox="0 0 300.000000 400.000000"
 preserveAspectRatio="xMidYMid meet">
<metadata>
Created by potrace 1.10, written by Peter Selinger 2001-2011
</metadata>
<g transform="translate(0.000000,400.000000) scale(0.100000,-0.100000)"
fill="#000000" stroke="none">
<path d="M265 3968 c6 -39 25 -170 25 -181 0 -4 -10 -3 -22 3 l-23 11 23 -18
c20 -17 26 -39 48 -198 37 -268 45 -337 41 -341 -2 -2 -30 5 -62 16 -33 11
-64 19 -69 17 -6 -2 24 -14 65 -26 l75 -24 13 -116 c23 -201 26 -211 59 -211
21 0 24 2 12 10 -12 8 -12 10 5 10 45 0 194 -34 188 -43 -4 -6 2 -8 15 -5 12
4 25 2 28 -3 3 -5 11 -9 17 -9 7 0 6 4 -3 11 -11 8 -5 9 25 5 22 -3 46 -6 53
-6 8 0 10 -5 6 -12 -4 -7 -4 -10 0 -6 5 4 19 3 32 -2 19 -7 24 -6 24 5 0 8 5
15 11 15 7 0 8 21 4 63 -11 122 -24 289 -23 295 3 16 -23 63 -32 57 -6 -4 -10
6 -11 22 -1 17 -3 21 -6 11 -6 -25 -19 -22 -41 10 -19 26 -39 128 -24 118 9
-5 8 31 -1 54 -5 13 -20 82 -31 140 -1 8 -10 30 -20 49 -10 18 -14 31 -8 28 5
-4 9 0 9 8 0 8 -4 12 -9 9 -4 -3 -9 1 -10 8 0 7 -2 18 -3 23 -2 6 -3 20 -4 33
0 13 -5 21 -10 18 -5 -4 -19 9 -30 28 -12 19 -33 41 -46 50 -14 9 -26 26 -26
39 -1 17 -2 18 -6 4 -4 -15 -11 -10 -43 25 -43 49 -67 46 -26 -3 l27 -32 -22
-23 c-19 -20 -22 -34 -20 -96 2 -104 11 -157 33 -195 11 -18 16 -33 10 -33
-10 0 -57 65 -64 89 -4 12 -6 12 -11 -2 -4 -10 7 -35 28 -67 18 -27 28 -50 22
-50 -6 0 -1 -7 11 -16 17 -11 21 -22 16 -37 l-6 -22 20 21 c20 22 20 22 2 82
-10 33 -21 86 -24 118 -19 195 -19 195 26 192 33 -3 68 -39 68 -69 0 -11 6
-19 13 -19 20 0 109 -300 107 -359 -2 -65 -1 -73 10 -66 6 4 10 -8 10 -28 0
-29 6 -39 43 -63 23 -15 43 -28 43 -29 1 0 9 -67 18 -150 9 -82 19 -158 22
-167 9 -31 -46 -19 -57 12 -5 14 -14 33 -20 43 -15 27 -6 30 18 7 19 -17 22
-18 28 -2 3 9 3 13 -1 10 -9 -10 -47 40 -39 52 3 5 3 10 -2 10 -17 0 -31 77
-27 145 3 49 1 64 -5 49 -5 -12 -14 -25 -20 -28 -15 -10 -64 70 -58 93 3 14 1
18 -9 14 -19 -7 -19 -9 21 -87 19 -39 35 -78 35 -87 0 -10 5 -21 10 -24 6 -3
10 -49 10 -101 l0 -94 27 6 c23 6 25 4 21 -14 -6 -23 8 -32 53 -32 22 0 27 -4
22 -16 -7 -19 -21 -18 -263 24 l-165 28 -16 125 c-9 68 -19 142 -22 164 -3 22
-27 203 -53 403 -27 199 -52 362 -57 362 -4 0 -5 -15 -2 -32z"/>
<path d="M591 3978 c17 -33 23 -37 14 -10 -6 20 3 16 59 -27 36 -28 66 -49 66
-45 0 17 -107 104 -127 104 -21 0 -23 -2 -12 -22z"/>
<path d="M2655 3990 c-4 -6 10 -7 37 -4 57 8 61 14 10 14 -22 0 -44 -4 -47
-10z"/>
<path d="M872 3978 c2 -6 29 -30 59 -54 54 -42 54 -43 104 -33 28 6 61 12 75
14 14 2 25 5 25 6 0 2 16 5 75 15 19 3 42 8 50 11 8 3 29 7 45 9 40 6 135 33
135 40 0 3 -8 3 -19 -1 -10 -3 -54 -12 -97 -20 -43 -8 -90 -17 -104 -20 -14
-3 -41 -8 -60 -12 -19 -4 -37 -8 -40 -8 -3 -1 -23 -5 -45 -9 -22 -4 -51 -12
-64 -17 -20 -8 -30 -3 -77 41 -53 50 -69 60 -62 38z"/>
<path d="M5 3932 c13 -14 145 -85 145 -79 0 3 -30 23 -67 44 -77 43 -93 50
-78 35z"/>
<path d="M622 3915 c6 -14 15 -22 20 -17 12 12 -1 42 -18 42 -11 0 -11 -5 -2
-25z"/>
<path d="M327 3840 c4 -36 8 -90 8 -122 0 -32 4 -51 8 -45 5 7 7 -4 5 -25 -2
-21 0 -38 5 -38 5 0 7 -22 5 -49 -1 -27 1 -47 5 -44 4 3 6 -18 4 -45 -1 -28 1
-48 5 -46 4 3 6 -11 3 -31 -3 -23 -1 -33 6 -29 7 4 9 -10 6 -40 -2 -25 1 -46
6 -46 5 0 7 -13 5 -30 -3 -16 0 -30 5 -30 5 0 7 -19 5 -45 -4 -29 -2 -42 5
-38 6 3 8 -6 5 -25 -2 -17 -1 -29 4 -26 4 3 8 -12 9 -33 1 -21 4 -49 9 -63 l7
-25 8 28 c4 16 5 49 1 75 -4 26 -15 112 -26 192 -11 80 -21 159 -24 175 -2 17
-5 46 -5 65 -1 26 -4 31 -11 20 -10 -16 -11 -9 -14 63 0 15 -4 27 -9 27 -4 0
-3 10 4 21 8 15 8 19 0 15 -6 -4 -11 -3 -11 3 0 5 6 12 13 15 8 3 7 8 -5 16
-10 6 -18 21 -17 33 0 21 1 21 9 2 8 -18 9 -18 9 6 1 14 -4 52 -10 85 -7 32
-11 68 -11 79 1 14 -1 16 -7 6 -7 -11 -10 -11 -15 0 -3 8 -3 -15 1 -51z"/>
<path d="M2825 3849 c-88 -16 -191 -34 -230 -40 -85 -13 -101 -23 -25 -15 104
12 430 71 430 79 0 4 -3 7 -7 6 -5 -1 -80 -14 -168 -30z"/>
<path d="M752 3840 c-1 -14 3 -43 7 -65 6 -26 9 -31 9 -15 1 14 -3 43 -7 65
-6 26 -9 31 -9 15z"/>
<path d="M565 3720 c-12 -19 15 -79 35 -77 14 1 16 5 9 19 -5 9 -14 20 -20 24
-8 5 -8 9 0 14 9 5 8 10 -3 19 -10 8 -16 9 -21 1z"/>
<path d="M766 3698 c3 -23 1 -38 -6 -38 -5 0 -10 -5 -10 -11 0 -5 5 -7 10 -4
7 4 9 -13 6 -52 -3 -42 -2 -51 5 -33 7 20 8 15 5 -22 -2 -28 1 -49 8 -53 8 -3
7 -7 -1 -11 -7 -3 -13 -15 -12 -27 0 -21 1 -21 8 -2 6 14 10 -2 15 -53 4 -40
11 -70 15 -67 14 8 61 -122 61 -167 0 -15 12 -40 26 -57 24 -29 25 -31 6 -31
-11 0 -23 6 -25 13 -4 9 -6 9 -6 -1 -1 -7 12 -18 29 -23 16 -6 27 -15 24 -20
-3 -5 0 -9 7 -9 6 0 9 -8 6 -20 -3 -11 -1 -18 4 -14 5 3 9 -5 10 -18 0 -21 1
-21 8 -3 7 17 9 16 15 -10 13 -50 45 -112 61 -119 8 -3 14 -9 13 -13 -2 -4 3
-23 11 -40 9 -22 20 -33 35 -34 20 0 21 -1 1 -9 -19 -8 -19 -9 2 -9 15 -1 25
-9 29 -26 3 -14 12 -25 20 -25 8 0 13 -3 12 -7 -1 -5 3 -18 10 -30 8 -14 9
-24 2 -28 -6 -4 -8 -11 -4 -16 3 -5 10 -24 14 -41 9 -30 9 -30 -20 -24 -17 3
-30 1 -30 -4 0 -6 19 -10 41 -10 40 0 41 1 35 28 -17 74 -18 92 -7 92 6 0 11
-7 11 -15 0 -8 5 -15 10 -15 20 0 9 27 -26 61 -59 57 -129 150 -167 224 -41
80 -87 181 -87 190 0 4 -9 18 -20 32 l-20 26 21 34 22 35 -23 -4 c-24 -3 -25
-2 -60 72 -22 45 -65 228 -56 237 10 10 25 -8 36 -45 7 -20 16 -41 20 -45 15
-17 -8 70 -34 128 l-27 60 6 -42 c3 -24 1 -43 -3 -43 -5 0 -12 30 -16 68 -3
37 -10 81 -16 97 -9 29 -10 28 -4 -7z"/>
<path d="M2785 3629 c-99 -16 -202 -33 -230 -38 l-50 -10 55 5 c68 6 403 56
409 60 13 11 -21 8 -184 -17z"/>
<path d="M0 3644 c0 -7 131 -66 136 -61 2 2 -27 18 -66 35 -38 17 -70 29 -70
26z"/>
<path d="M837 3643 c-4 -3 -7 -16 -6 -27 1 -18 2 -17 8 4 6 23 9 20 35 -35 41
-89 48 -112 52 -195 5 -90 25 -122 201 -319 42 -47 90 -108 108 -135 18 -28
49 -68 69 -90 20 -22 36 -49 36 -62 0 -17 12 -31 40 -49 22 -14 47 -37 57 -51
14 -22 15 -29 3 -47 -12 -20 -12 -21 3 -8 15 11 17 11 17 -2 0 -8 -7 -20 -15
-27 -20 -17 -10 -29 18 -22 20 5 21 4 7 -13 -9 -11 -10 -16 -2 -11 9 5 12 -3
12 -28 0 -20 -4 -36 -10 -36 -5 0 -10 -5 -10 -11 0 -5 5 -7 10 -4 6 4 10 -6
10 -22 l0 -28 25 30 c30 37 32 78 5 96 -11 8 -21 23 -23 34 -2 11 -7 28 -11
37 -4 9 -5 22 -1 28 3 5 2 10 -3 10 -9 0 -36 51 -31 60 1 3 10 4 21 2 12 -2
18 3 18 15 0 14 -2 15 -9 5 -7 -11 -15 -11 -44 2 -56 23 -81 50 -73 81 5 20 2
27 -16 35 l-23 9 25 2 c23 1 23 2 -5 8 -21 4 -35 16 -47 41 -10 19 -33 51 -51
72 -19 21 -32 38 -30 38 3 0 -10 15 -29 33 -18 19 -50 54 -71 78 -34 38 -36
44 -20 50 15 7 15 8 -4 8 -16 1 -23 7 -23 20 0 11 -4 23 -10 26 -5 3 -10 -2
-10 -12 -1 -16 -2 -16 -10 -2 -5 9 -26 33 -45 52 -31 31 -36 42 -35 79 2 51
-18 161 -31 168 -5 3 -10 15 -12 27 -1 12 -9 28 -16 37 -7 9 -10 16 -6 16 5 0
0 9 -10 20 -19 21 -28 24 -38 13z"/>
<path d="M2430 3574 l-65 -13 60 5 c33 3 64 10 70 15 5 5 7 8 5 8 -3 -1 -34
-7 -70 -15z"/>
<path d="M239 3535 c40 -20 75 -34 78 -32 2 2 -25 17 -59 32 -93 40 -104 40
-19 0z"/>
<path d="M504 3489 c-3 -6 -1 -15 6 -19 8 -5 9 -9 1 -11 -18 -6 0 -49 20 -49
12 0 19 -7 19 -19 0 -25 -20 -38 -30 -20 -5 7 -16 14 -25 15 -15 2 -16 -3 -10
-39 5 -23 9 -60 11 -82 9 -131 13 -158 28 -174 18 -20 22 -36 6 -26 -5 3 -10
-1 -10 -9 0 -9 4 -16 9 -16 14 0 22 32 11 45 -6 7 -11 55 -13 106 -2 81 1 101
21 141 l24 47 -23 60 c-21 60 -31 71 -45 50z"/>
<path d="M576 3471 c-3 -5 8 -11 24 -13 20 -3 30 0 30 9 0 14 -46 18 -54 4z"/>
<path d="M1403 3433 c-13 -2 -23 -8 -23 -13 0 -5 6 -7 13 -5 6 3 39 9 72 14
l60 9 -50 -1 c-27 0 -60 -2 -72 -4z"/>
<path d="M2910 3430 c-25 -4 -76 -11 -115 -15 -38 -5 -63 -10 -54 -12 19 -5
250 24 257 32 7 7 -32 4 -88 -5z"/>
<path d="M2640 3394 l-75 -13 75 6 c41 3 77 7 79 9 10 10 -9 9 -79 -2z"/>
<path d="M2485 3374 l-70 -13 65 4 c35 3 69 10 74 15 6 6 8 9 6 9 -3 -1 -36
-8 -75 -15z"/>
<path d="M2173 3336 c-45 -6 -84 -14 -87 -17 -6 -6 103 6 189 20 76 13 -1 11
-102 -3z"/>
<path d="M570 3281 c-17 -33 -13 -42 15 -29 27 12 35 48 10 48 -8 0 -19 -9
-25 -19z"/>
<path d="M607 3216 c-3 -8 1 -17 9 -20 8 -3 14 -10 14 -16 0 -6 -4 -8 -10 -5
-5 3 -10 2 -10 -4 0 -5 -3 -16 -6 -25 -4 -11 -1 -16 10 -16 9 0 16 -4 16 -10
0 -5 -5 -10 -11 -10 -8 0 -10 -15 -5 -49 4 -32 3 -52 -4 -56 -6 -4 -9 -14 -6
-22 6 -15 -22 -14 -114 3 -19 4 -15 0 13 -15 20 -11 59 -22 85 -26 26 -3 63
-10 82 -14 20 -4 44 -5 53 -2 12 5 -2 11 -42 19 -46 10 -59 16 -54 27 3 8 0
15 -6 15 -6 0 -2 13 10 29 19 26 20 33 9 85 -6 30 -9 60 -6 65 3 5 0 21 -8 35
-10 20 -15 23 -19 12z"/>
<path d="M1612 3216 c8 -9 15 -10 19 -4 4 6 11 2 18 -9 8 -15 17 -19 37 -15
21 4 25 2 19 -9 -7 -12 -6 -12 9 0 15 13 18 12 22 -6 3 -12 14 -23 25 -26 10
-3 17 -1 13 4 -3 5 1 9 8 9 23 0 -31 31 -88 51 -70 23 -101 26 -82 5z"/>
<path d="M2910 3220 l-45 -7 45 -1 c25 0 56 4 70 8 l25 8 -25 0 c-14 -1 -45
-4 -70 -8z"/>
<path d="M2725 3200 l-40 -7 35 -1 c19 0 60 3 90 8 l55 7 -50 0 c-27 0 -68 -3
-90 -7z"/>
<path d="M1524 3181 c3 -5 -1 -12 -10 -15 -8 -3 -12 -10 -9 -16 3 -5 0 -10 -7
-10 -14 -1 -53 -48 -45 -56 3 -3 20 8 38 24 19 16 42 31 52 35 9 4 17 11 17
17 0 6 11 3 25 -6 14 -9 25 -14 25 -11 0 3 17 -3 38 -13 20 -10 38 -15 40 -10
2 5 19 2 39 -6 27 -12 34 -12 31 -2 -3 7 -9 13 -14 14 -5 0 -17 4 -27 9 -10 4
-21 5 -24 2 -8 -9 -46 13 -61 35 -16 22 -32 24 -32 3 0 -12 -4 -13 -19 -6 -10
6 -21 7 -25 4 -3 -3 -6 -1 -6 5 0 7 -7 12 -16 12 -8 0 -13 -4 -10 -9z"/>
<path d="M2545 3180 c-48 -7 -48 -7 -10 -7 22 -1 65 2 95 7 54 7 54 7 10 7
-25 0 -67 -3 -95 -7z"/>
<path d="M1800 3146 c0 -8 6 -19 13 -23 8 -4 22 -23 32 -40 11 -18 23 -33 28
-33 4 0 6 -3 4 -7 -2 -5 4 -16 15 -25 24 -24 23 -14 -8 46 -29 55 -84 110 -84
82z"/>
<path d="M2265 3150 c-30 -5 -34 -8 -15 -10 14 -1 30 -1 35 1 6 1 33 5 60 9
l50 7 -45 0 c-25 0 -63 -3 -85 -7z"/>
<path d="M1590 3126 c0 -2 20 -18 45 -34 28 -18 41 -32 33 -35 -7 -3 1 -5 18
-4 19 1 30 6 27 12 -2 8 7 10 27 7 16 -2 30 -8 30 -12 0 -5 10 -12 22 -16 37
-11 78 -74 48 -74 -5 0 -10 -6 -10 -12 0 -7 12 0 25 15 l25 28 0 -26 c0 -18
-8 -29 -27 -38 -16 -6 -30 -15 -34 -19 -7 -10 -102 -39 -107 -33 -3 3 1 11 8
20 11 13 10 14 -4 9 -9 -3 -16 -11 -16 -16 0 -6 -6 -8 -14 -5 -7 3 -18 1 -24
-5 -7 -7 -15 -1 -25 18 -8 16 -19 28 -24 28 -4 -1 -7 3 -5 9 2 5 -2 13 -9 17
-6 4 -12 23 -13 41 -2 19 -6 42 -11 53 -5 11 -4 26 4 37 9 16 8 19 -5 19 -8 0
-13 -4 -10 -9 3 -4 -3 -16 -14 -26 -24 -21 -26 -58 -5 -75 8 -7 15 -19 15 -28
0 -8 7 -20 16 -27 15 -10 15 -13 0 -27 -20 -21 -21 -42 -1 -35 8 4 17 2 20 -3
10 -17 25 -11 18 7 -4 11 -3 14 5 9 18 -11 14 -30 -8 -44 -28 -17 -25 -28 8
-27 21 0 27 5 25 21 -1 11 7 25 17 32 17 11 20 9 20 -9 0 -11 -5 -29 -10 -39
-7 -13 -7 -21 0 -25 8 -5 8 -11 0 -20 -18 -22 -7 -79 18 -90 26 -12 29 -25 5
-26 -10 0 7 -6 37 -13 80 -18 124 -44 226 -135 69 -61 96 -93 109 -126 9 -24
30 -59 46 -76 16 -17 29 -42 29 -56 0 -13 18 -62 40 -108 22 -46 40 -88 40
-92 0 -5 9 -16 20 -26 11 -9 17 -23 14 -32 -4 -10 0 -15 11 -15 12 0 16 -6 12
-20 -3 -13 0 -20 9 -20 16 0 19 -16 4 -25 -15 -10 -12 -35 5 -35 18 0 20 -27
3 -33 -10 -3 -10 -8 -2 -18 17 -23 9 -81 -15 -100 -12 -10 -21 -24 -21 -32 0
-9 -4 -17 -8 -19 -5 -2 -29 -43 -55 -92 -44 -83 -46 -91 -37 -128 15 -54 10
-154 -11 -210 -9 -26 -15 -49 -12 -52 3 -2 -2 -15 -11 -27 -12 -17 -13 -26 -4
-37 7 -8 8 -16 2 -20 -27 -20 -63 -152 -93 -337 -5 -36 -9 -40 -36 -42 -16 -1
-46 -4 -65 -8 -19 -3 -55 -8 -80 -11 -34 -5 -40 -8 -28 -15 10 -6 35 -6 60 -1
49 10 108 10 124 0 7 -5 8 -20 0 -52 -8 -35 -17 -48 -38 -57 -40 -16 -43 -27
-8 -25 53 2 31 -19 -25 -24 -30 -3 -54 -9 -53 -15 2 -5 6 -9 10 -8 4 2 5 -3 2
-11 -4 -9 7 -15 35 -20 23 -3 41 -12 41 -19 0 -8 4 -7 10 3 6 10 8 3 4 -25 -3
-30 -2 -35 5 -19 5 12 12 43 16 70 16 127 16 129 60 134 25 3 34 7 24 12 -8 3
-28 4 -43 1 -27 -6 -27 -5 -20 33 3 22 11 44 15 50 9 12 20 56 45 189 9 44 21
83 27 88 7 4 28 5 47 3 25 -4 31 -3 20 4 -8 5 -25 10 -37 10 -27 0 -29 15 -7
59 9 17 17 40 19 49 2 9 4 17 5 17 1 0 3 9 5 19 2 10 9 22 15 26 9 6 9 9 -1
12 -12 4 -12 9 -1 29 6 13 14 39 16 58 2 22 10 37 21 41 17 6 17 7 2 13 -19 7
-23 52 -6 63 8 4 5 10 -7 17 -17 10 -17 11 1 18 16 6 16 8 4 8 -23 1 -32 51
-10 52 9 0 11 3 4 5 -15 7 15 44 36 44 11 0 9 5 -6 17 l-20 17 21 20 c11 12
29 38 40 58 10 20 27 46 38 58 10 11 16 20 12 20 -3 0 -1 6 5 14 17 20 11 118
-8 133 -14 11 -14 12 3 13 18 0 18 1 2 19 -20 22 -12 48 17 54 14 3 10 5 -12
6 -35 1 -60 23 -61 53 0 9 6 19 13 21 6 3 -1 7 -18 8 -17 1 -5 5 30 9 l60 7
-56 1 c-57 2 -76 15 -70 50 1 6 -3 12 -9 12 -6 0 -9 4 -5 9 3 6 0 13 -7 18
-12 8 -38 47 -38 58 0 3 19 6 43 7 l42 1 -37 4 c-21 2 -38 9 -38 15 0 6 -8 17
-17 24 -16 12 -16 15 -3 24 12 8 11 10 -6 10 -22 0 -34 18 -40 57 -3 28 11 30
271 40 110 4 173 9 140 11 -34 2 -144 -1 -245 -6 -152 -8 -188 -7 -205 4 -11
8 -16 14 -12 14 5 0 -1 13 -12 29 -20 27 -20 30 -4 34 11 3 8 5 -10 6 -15 1
-36 12 -49 26 -12 14 -29 26 -37 26 -9 1 -2 5 14 9 l30 8 -30 1 c-17 0 -42 12
-57 26 -15 14 -30 25 -32 25 -3 0 -15 8 -26 17 -12 11 -32 16 -50 15 -28 -3
-29 -2 -20 28 5 17 25 48 45 68 32 34 82 138 71 149 -3 3 -8 -7 -12 -22 -4
-15 -10 -22 -13 -16 -4 6 -19 -2 -36 -21 -17 -18 -25 -29 -18 -25 6 4 14 3 18
-3 4 -6 11 -7 17 -4 7 4 8 2 4 -4 -4 -7 -14 -12 -22 -12 -8 0 -13 -4 -9 -9 3
-5 -7 -19 -22 -31 -16 -12 -28 -25 -28 -29 0 -4 -8 -15 -17 -25 -10 -10 -18
-12 -18 -6 0 6 -5 8 -12 4 -8 -5 -7 0 2 11 8 10 10 16 3 12 -7 -5 -16 1 -22
12 -14 25 -14 98 -1 106 6 4 8 10 5 14 -2 4 15 14 38 20 23 7 57 20 76 28 32
13 33 13 21 -1 -7 -9 -29 -24 -49 -33 -38 -18 -61 -37 -61 -49 0 -4 8 0 18 8
9 9 34 23 54 33 44 20 88 74 83 101 -2 10 -4 27 -4 37 -1 10 -9 17 -19 17 -22
0 -44 22 -66 65 -9 17 -16 23 -16 15 0 -12 -14 -15 -63 -16 -37 -1 -65 3 -69
10 -4 6 -11 11 -15 11 -4 1 -18 6 -30 13 -13 7 -23 11 -23 8z"/>
<path d="M1440 3050 c0 -11 5 -20 12 -20 6 0 8 -3 5 -7 -4 -3 -1 -13 6 -21 10
-12 9 -14 -2 -11 -15 5 -68 -37 -58 -47 3 -3 19 2 36 10 16 9 38 16 48 17 11
0 13 3 5 6 -6 2 -10 9 -7 13 8 13 -22 80 -34 80 -6 0 -11 -9 -11 -20z"/>
<path d="M1586 3062 c-10 -16 33 -37 47 -23 10 10 5 13 -19 10 -4 0 -10 5 -14
11 -5 8 -10 9 -14 2z"/>
<path d="M1392 3033 c-12 -2 -27 -13 -32 -23 -5 -10 -19 -22 -31 -25 -16 -5
-18 -10 -8 -21 9 -11 8 -14 -7 -14 -17 -1 -16 -2 4 -13 12 -7 19 -16 15 -21
-14 -14 19 -23 43 -12 31 14 30 22 -1 30 -35 9 -33 42 4 60 16 9 31 22 34 31
4 8 5 14 4 14 -1 -1 -12 -4 -25 -6z"/>
<path d="M1644 3022 c-6 -4 -8 -15 -5 -25 6 -17 8 -18 21 -3 14 18 2 40 -16
28z"/>
<path d="M2690 2999 c-96 -9 -190 -18 -209 -18 -19 -1 -32 -4 -28 -7 5 -6 311
18 457 35 l65 8 -55 0 c-30 0 -134 -8 -230 -18z"/>
<path d="M2330 2968 c-146 -11 -158 -17 -25 -11 110 5 135 8 124 16 -2 1 -47
-1 -99 -5z"/>
<path d="M1389 2882 c-12 -14 -13 -22 -5 -35 8 -12 7 -22 -1 -37 -11 -16 -10
-18 1 -14 9 3 15 24 18 55 1 27 3 49 3 49 0 0 -8 -8 -16 -18z"/>
<path d="M1567 2803 c-11 -18 29 -36 51 -24 14 9 13 10 -10 11 -14 0 -28 5
-30 12 -3 9 -6 9 -11 1z"/>
<path d="M2515 2790 c-49 -7 -50 -7 -10 -9 22 -1 51 -4 65 -6 21 -5 22 -4 5 4
-17 8 -15 9 15 13 30 4 31 5 5 5 -16 0 -52 -3 -80 -7z"/>
<path d="M2380 2781 c0 -5 7 -12 16 -15 8 -3 12 -2 9 3 -3 6 9 12 27 14 29 3
28 4 -9 5 -24 1 -43 -2 -43 -7z"/>
<path d="M1587 2729 c-9 -13 -17 -16 -22 -10 -9 15 -21 14 -23 -1 -1 -7 -5
-28 -8 -45 -4 -22 -2 -33 5 -33 7 0 9 5 6 10 -3 6 -1 10 4 10 6 0 11 6 11 14
0 8 14 26 31 39 18 14 27 27 21 31 -6 3 -17 -3 -25 -15z"/>
<path d="M378 2733 c18 -2 45 -2 60 0 15 2 0 4 -33 4 -33 0 -45 -2 -27 -4z"/>
<path d="M1240 2695 c-1 -5 -1 -14 0 -20 1 -5 3 -37 5 -69 6 -88 14 -116 31
-109 8 3 14 1 14 -5 0 -6 -4 -12 -10 -14 -6 -2 -6 -23 0 -63 5 -33 11 -100 12
-150 2 -79 2 -82 6 -30 l5 60 12 -70 c10 -54 14 -65 20 -48 4 13 12 20 19 16
6 -3 6 0 -1 8 -7 7 -12 31 -12 53 l2 41 7 -35 c5 -23 8 9 8 90 1 110 -1 128
-18 150 l-20 25 6 -125 c4 -95 3 -121 -6 -107 -7 10 -11 66 -12 135 0 104 -2
119 -21 139 -11 13 -18 26 -14 29 3 4 1 16 -5 28 -6 11 -15 35 -19 51 -4 17
-8 26 -9 20z"/>
<path d="M1685 2592 c-22 -21 -47 -47 -55 -58 -31 -39 32 11 68 54 43 52 39
53 -13 4z"/>
<path d="M2530 2610 l-85 -6 98 -2 c63 -1 96 2 92 8 -3 6 -9 9 -13 8 -4 -1
-45 -5 -92 -8z"/>
<path d="M1353 2555 c0 -33 2 -45 4 -27 2 18 2 45 0 60 -2 15 -4 0 -4 -33z"/>
<path d="M2240 2592 c0 -4 17 -6 38 -4 64 6 69 10 15 11 -29 0 -53 -3 -53 -7z"/>
<path d="M927 2541 c3 -12 12 -21 19 -21 8 0 13 -3 12 -7 -1 -5 1 -24 5 -43 4
-19 18 -122 31 -229 14 -106 28 -196 31 -199 12 -13 14 8 4 59 -15 80 -20 139
-10 139 9 0 8 39 -3 88 -5 22 -4 32 4 32 8 0 7 4 -2 13 -7 8 -20 48 -27 91 -8
42 -18 79 -22 82 -5 3 -9 0 -9 -7 0 -8 -7 -6 -19 5 -19 17 -19 17 -14 -3z"/>
<path d="M882 2525 c-7 -15 -20 -25 -33 -25 -45 0 -315 -21 -339 -27 -22 -4
-22 -6 -7 -12 10 -4 68 0 128 8 96 13 112 13 120 0 5 -7 9 -9 9 -4 0 14 110
19 110 5 0 -5 -6 -10 -12 -10 -9 0 -8 -4 2 -10 12 -7 15 -32 15 -112 0 -57 8
-157 18 -223 31 -214 33 -234 27 -230 -4 2 -13 22 -20 45 -15 46 -28 60 -24
27 1 -12 3 -22 4 -22 1 0 3 -26 5 -57 3 -32 0 -58 -4 -58 -13 0 -21 61 -24
168 -1 52 -5 83 -8 70 -6 -20 -7 -19 -8 9 -1 17 -5 34 -10 37 -10 6 -21 -50
-21 -110 0 -41 -27 -84 -54 -84 -21 0 -43 32 -49 74 -4 22 -12 43 -19 48 -7 4
-10 8 -7 8 4 0 3 16 -1 35 -5 22 -4 35 3 38 6 2 3 6 -6 10 -13 5 -20 0 -27
-16 -8 -19 -9 -20 -9 -3 -1 29 22 89 39 104 13 10 12 11 -5 6 -20 -6 -20 -5
-1 10 11 9 16 16 12 16 -5 0 -3 6 3 14 6 7 8 21 5 31 -5 11 -19 -13 -45 -79
-30 -76 -36 -102 -29 -125 4 -16 6 -32 2 -35 -3 -3 0 -6 6 -6 7 0 12 5 12 10
0 6 5 10 11 10 7 0 9 -10 7 -25 -3 -14 -1 -28 3 -31 5 -3 9 -13 9 -22 0 -14
-2 -14 -9 -3 -10 15 -6 -67 6 -134 8 -46 5 -75 -9 -92 -6 -8 -3 -21 9 -39 l18
-28 6 34 c4 19 7 26 8 14 0 -11 -4 -46 -10 -77 -10 -59 -4 -106 12 -90 13 13
18 131 7 166 -5 18 -11 48 -14 67 -2 19 -9 51 -14 70 -6 19 -10 50 -10 68 0
44 21 38 33 -9 5 -19 13 -38 18 -44 7 -7 8 -3 4 10 -7 20 -6 20 9 1 17 -21 22
-51 7 -42 -5 3 -12 -1 -15 -10 -4 -11 -2 -15 8 -11 10 4 16 -2 19 -16 2 -12 5
-3 6 21 1 49 18 56 24 10 3 -30 4 -30 5 7 1 22 10 51 19 64 11 17 16 41 14 75
-1 28 1 47 5 43 12 -12 14 -31 19 -177 3 -74 7 -155 10 -179 4 -30 1 -49 -9
-60 -8 -9 -15 -20 -16 -26 -1 -5 -8 -9 -15 -9 -8 1 -13 -2 -10 -6 3 -5 0 -12
-6 -16 -8 -4 -9 -3 -5 4 4 7 1 12 -6 12 -7 1 -1 11 13 23 19 15 25 28 20 40
-6 15 -11 11 -34 -23 -15 -23 -27 -45 -27 -48 0 -4 -9 -13 -20 -20 -11 -7 -20
-21 -20 -32 0 -18 -16 -26 -43 -21 -5 1 -6 -3 -2 -8 6 -11 -38 -44 -62 -47
-12 -2 -12 0 -1 14 11 13 11 14 0 8 -10 -6 -13 -3 -10 10 2 11 10 18 16 17 7
-2 12 9 12 27 0 21 -5 30 -16 30 -11 0 -14 -6 -9 -20 3 -11 2 -20 -4 -20 -5 0
-9 23 -8 54 2 30 0 51 -3 46 -3 -5 -16 79 -28 188 -13 108 -27 226 -32 262 -5
36 -14 108 -20 160 -7 52 -16 120 -22 150 -6 30 -11 66 -13 80 -3 35 -5 37
-14 20 -9 -16 17 -231 99 -825 32 -234 34 -246 45 -243 5 2 8 10 7 17 -3 13
-2 13 14 0 10 -7 15 -9 11 -3 -5 10 172 140 245 181 11 6 23 15 27 20 3 4 15
13 26 19 17 9 20 21 20 70 -1 85 -13 237 -39 494 -12 124 -21 227 -19 229 7
10 12 -7 14 -47 2 -23 7 -42 12 -42 5 0 7 10 4 23 -3 12 -9 47 -13 77 -5 42
-9 50 -15 35 -5 -12 -6 -1 -3 28 7 53 3 59 -14 22z m41 -668 c5 4 5 0 1 -10
-3 -9 0 -25 7 -34 9 -11 10 -14 2 -9 -12 7 -11 -25 3 -74 3 -10 0 -10 -10 3
-10 13 -15 15 -19 5 -6 -19 12 -50 25 -42 6 4 9 1 7 -5 -3 -7 -19 -21 -37 -32
l-32 -21 0 34 c0 35 19 88 33 88 4 0 7 12 7 27 0 14 -3 23 -7 19 -4 -4 -8 -15
-8 -24 0 -9 -5 -16 -12 -15 -7 2 -10 -4 -7 -12 4 -8 1 -15 -6 -15 -18 0 -3 52
20 72 17 13 18 21 10 43 -5 14 -10 34 -9 43 0 9 6 2 13 -16 6 -18 15 -30 19
-25z"/>
<path d="M1557 2530 c3 -12 14 -20 26 -20 19 0 20 1 2 20 -10 11 -21 20 -26
20 -4 0 -5 -9 -2 -20z"/>
<path d="M1185 2510 c-3 -5 -3 -10 2 -10 7 0 10 -87 3 -107 -1 -5 -1 -18 0
-31 1 -13 -7 -30 -17 -37 -11 -9 -13 -14 -5 -15 8 0 10 -8 6 -25 -4 -17 -2
-25 7 -25 8 0 4 -8 -10 -19 -23 -17 -23 -18 -3 -23 15 -4 19 -12 15 -31 -3
-13 0 -34 6 -46 8 -15 8 -21 1 -21 -8 0 -8 -6 0 -19 8 -15 7 -22 -4 -28 -16
-9 -16 -8 -16 -63 0 -29 -4 -40 -15 -40 -19 0 -19 -14 -1 -32 8 -8 16 -23 19
-34 3 -13 5 -10 7 11 4 63 9 97 16 113 10 25 14 492 4 492 -5 0 -12 -4 -15
-10z"/>
<path d="M1153 2458 c-5 -7 -7 -24 -3 -38 6 -24 7 -24 14 8 9 37 4 49 -11 30z"/>
<path d="M1410 2410 c0 -35 2 -61 4 -59 8 7 10 108 3 115 -4 4 -7 -21 -7 -56z"/>
<path d="M1238 2408 c-3 -23 -1 -50 3 -58 6 -10 9 -4 9 20 0 28 3 32 11 20 8
-11 9 -8 4 15 -10 48 -22 50 -27 3z"/>
<path d="M2753 2433 c26 -2 68 -2 95 0 26 2 4 3 -48 3 -52 0 -74 -1 -47 -3z"/>
<path d="M506 2380 c3 -19 15 -134 29 -255 41 -378 48 -425 55 -425 5 0 7 -15
6 -33 -2 -42 18 -44 37 -5 15 30 11 92 -5 82 -5 -4 -8 -17 -5 -30 2 -14 1 -26
-3 -29 -4 -2 -12 48 -19 113 -14 136 -26 233 -52 429 -10 79 -19 148 -19 154
0 5 -4 8 -9 4 -5 -3 -12 3 -15 12 -2 10 -3 2 0 -17z"/>
<path d="M674 2382 c-3 -9 -10 -25 -15 -34 -12 -23 -12 -38 1 -38 6 0 9 3 8 8
0 4 2 15 5 25 4 9 9 24 12 32 2 8 9 15 15 15 13 0 13 -26 -1 -52 -13 -23 -5
-35 13 -20 28 22 55 17 82 -15 24 -29 32 -46 35 -75 1 -5 5 -8 11 -8 6 0 6 9
1 23 -10 25 -11 31 -11 52 0 8 -6 15 -13 15 -8 0 -20 11 -27 25 -9 18 -22 25
-42 25 -15 0 -28 5 -28 10 0 6 5 10 10 10 25 0 7 15 -20 17 -22 2 -32 -3 -36
-15z"/>
<path d="M1478 2376 c-31 -17 -38 -26 -37 -51 1 -24 2 -26 7 -10 11 31 29 28
52 -11 30 -47 37 -36 10 16 -20 40 -21 43 -4 61 21 23 19 23 -28 -5z"/>
<path d="M1724 2312 c3 -70 7 -87 24 -105 l22 -21 -6 24 c-7 29 -6 102 2 145
4 21 3 27 -4 20 -6 -5 -12 -32 -14 -60 l-3 -50 -12 65 -12 65 3 -83z"/>
<path d="M636 2353 c-12 -25 -13 -35 -2 -67 10 -30 14 -34 18 -18 3 10 1 27
-4 37 -7 11 -6 25 1 42 17 36 6 41 -13 6z"/>
<path d="M609 2305 c-1 -5 0 -21 1 -34 1 -13 -2 -21 -7 -18 -6 4 -10 -7 -10
-24 0 -21 4 -28 14 -25 10 4 11 1 3 -14 -5 -10 -10 -27 -9 -37 0 -12 5 -8 14
12 23 55 28 78 15 70 -10 -6 -12 -1 -7 21 3 17 2 36 -4 44 -5 8 -9 11 -10 5z"/>
<path d="M1460 2291 c0 -28 -19 -36 -36 -15 -13 17 -13 16 -3 -9 11 -25 14
-26 30 -11 16 14 18 12 34 -41 9 -32 18 -55 21 -52 6 6 -34 147 -41 147 -3 0
-5 -9 -5 -19z"/>
<path d="M1253 2235 c3 -38 0 -94 -5 -125 -8 -43 -7 -62 4 -90 14 -34 15 -32
21 80 6 106 -1 182 -18 198 -4 4 -5 -24 -2 -63z"/>
<path d="M1652 2261 c7 -28 24 -51 61 -83 79 -67 88 -68 28 -3 -29 33 -60 74
-69 92 -21 45 -32 42 -20 -6z"/>
<path d="M935 2253 c4 -10 8 -29 9 -43 3 -35 17 -103 25 -115 3 -5 6 -23 7
-40 1 -16 6 -31 13 -33 6 -2 9 -8 5 -13 -3 -5 0 -9 6 -9 7 0 9 7 5 18 -9 24
-43 169 -50 215 -3 20 -11 37 -17 37 -6 0 -7 -7 -3 -17z"/>
<path d="M1510 2241 c0 -13 58 -80 108 -125 56 -51 54 -25 -3 32 -25 24 -45
46 -45 49 0 6 -48 53 -55 53 -3 0 -5 -4 -5 -9z"/>
<path d="M2332 2243 c37 -2 100 -2 140 0 40 1 10 3 -67 3 -77 0 -110 -1 -73
-3z"/>
<path d="M1804 2169 l23 -66 -26 4 c-23 3 -23 2 -6 -6 30 -13 66 -51 60 -61
-3 -5 3 -14 14 -20 11 -6 18 -16 15 -24 -3 -8 3 -16 15 -19 26 -7 27 12 3 44
-28 37 -58 92 -71 130 -6 19 -20 45 -31 59 -18 23 -18 20 4 -41z"/>
<path d="M808 2210 c15 -17 16 -34 1 -24 -7 4 -9 0 -5 -12 3 -11 2 -24 -2 -31
-9 -14 -88 -44 -95 -36 -3 3 -3 -4 0 -16 7 -27 18 -27 37 1 16 22 16 22 31 3
14 -19 16 -18 19 5 2 20 29 47 45 45 9 -1 10 0 4 2 -7 3 -13 15 -13 28 0 12
-8 29 -17 36 -15 11 -16 11 -5 -1z"/>
<path d="M2082 2175 c-33 -28 -100 -54 -119 -48 -7 3 -13 -1 -13 -7 0 -23 104
12 149 50 13 11 22 23 19 26 -3 2 -19 -7 -36 -21z"/>
<path d="M1640 2180 c0 -11 52 -40 71 -40 14 0 -28 34 -53 43 -10 3 -18 2 -18
-3z"/>
<path d="M1300 2063 c-3 -61 -2 -109 3 -106 4 2 11 -6 15 -18 7 -18 10 -20 17
-8 10 15 21 207 12 199 -6 -6 -21 -134 -19 -164 1 -11 -3 -15 -8 -10 -5 5 -11
56 -12 114 l-3 105 -5 -112z"/>
<path d="M1361 2072 c0 -106 -8 -186 -22 -214 -6 -10 -5 -35 0 -60 5 -24 13
-81 16 -128 4 -47 11 -92 16 -102 5 -9 9 -25 9 -35 0 -15 -2 -16 -11 -3 -9 12
-10 12 -5 -3 3 -10 6 -26 7 -35 0 -9 7 1 16 22 13 30 14 41 4 44 -8 3 -9 8 -2
15 5 7 11 26 14 42 3 17 8 42 12 58 8 30 -8 38 -23 10 -9 -14 -11 -14 -22 7
-10 18 -9 25 4 38 13 13 19 14 40 2 26 -13 26 -13 11 -150 -3 -31 -2 -32 7
-12 6 12 15 22 20 22 13 0 10 -23 -6 -46 -15 -20 -11 -64 4 -64 4 0 11 -11 14
-25 4 -14 18 -31 31 -37 14 -6 26 -15 26 -20 1 -4 2 -12 3 -18 0 -5 5 -10 10
-9 5 0 12 -3 15 -8 3 -5 29 -20 56 -33 48 -23 55 -25 82 -28 7 -1 10 -9 7 -17
-5 -12 -16 -14 -43 -10 l-36 6 33 -15 c30 -14 31 -17 20 -36 -11 -19 -10 -24
10 -40 12 -10 28 -20 35 -23 9 -3 9 -7 0 -19 -10 -12 -10 -18 3 -34 15 -18 15
-18 11 4 -4 17 -1 22 15 22 15 0 19 -5 16 -18 -5 -19 19 -42 44 -42 9 0 9 3 1
11 -6 6 -9 17 -7 24 3 6 -13 24 -35 40 -35 24 -71 72 -71 95 0 4 16 23 36 44
19 20 33 40 30 45 -8 12 18 21 56 21 30 0 30 0 14 -25 -12 -18 -13 -25 -4 -25
10 0 10 -2 1 -8 -8 -5 -6 -14 8 -31 26 -32 35 -20 20 29 -12 40 -8 65 9 55 4
-3 13 2 20 10 7 8 16 12 21 9 5 -3 9 4 9 15 0 26 8 26 40 1 14 -11 33 -20 43
-20 23 0 22 -15 -5 -50 -37 -50 -15 -40 25 11 l37 49 -25 0 c-52 0 -139 62
-118 84 13 13 -6 5 -48 -19 -24 -14 -51 -25 -59 -25 -19 -1 -55 -28 -48 -36 4
-3 38 10 77 29 l70 35 -14 -29 c-18 -33 -43 -49 -80 -49 -36 0 -65 -17 -65
-39 0 -14 -6 -17 -32 -13 -18 2 -37 8 -43 12 -5 4 -32 13 -58 20 -35 9 -52 20
-62 40 -8 15 -24 30 -36 33 -11 3 -18 10 -14 16 3 6 -3 20 -13 31 -16 18 -18
28 -10 68 5 29 5 57 -1 72 -16 41 -84 393 -97 500 -10 84 -14 73 -13 -38z m38
-262 c1 -3 -7 -6 -18 -7 -20 -2 -24 26 -6 39 8 6 22 -12 24 -32z m11 -29 c0
-3 -4 -12 -9 -19 -6 -11 -11 -10 -25 4 -13 13 -14 19 -5 25 13 8 39 1 39 -10z"/>
<path d="M2690 2083 c0 -4 71 -9 158 -10 86 -1 151 1 144 6 -18 11 -302 15
-302 4z"/>
<path d="M1560 2061 c13 -26 13 -34 -2 -25 -7 4 -8 3 -4 -5 4 -6 12 -9 17 -6
5 4 9 -1 9 -10 0 -19 90 -77 153 -99 81 -27 74 -18 -20 28 -75 36 -96 52 -122
90 -32 47 -50 62 -31 27z"/>
<path d="M2131 2024 c-29 -13 -62 -24 -72 -24 -10 0 -21 -4 -24 -10 -10 -17
28 -11 70 10 22 11 44 20 51 20 6 0 17 7 24 15 16 19 16 19 -49 -11z"/>
<path d="M1030 2014 c0 -12 28 -77 61 -145 34 -68 67 -142 74 -164 13 -39 13
-38 8 30 -3 39 -10 75 -15 80 -7 7 -9 3 -5 -12 3 -13 1 -23 -3 -23 -5 0 -11
18 -15 40 -4 22 -11 38 -15 35 -5 -3 -14 12 -21 35 -7 22 -20 47 -31 56 -10
10 -18 27 -18 38 0 12 -5 28 -10 36 -8 12 -10 11 -10 -6z"/>
<path d="M1216 1999 c-8 -43 -8 -51 4 -44 18 11 10 -11 -10 -30 -24 -22 -26
-81 -5 -109 11 -15 12 -22 3 -27 -9 -6 -9 -14 2 -33 7 -14 17 -26 21 -26 12 0
7 130 -5 143 -16 16 -14 49 3 55 9 3 11 -1 6 -17 -5 -16 -2 -21 10 -21 13 0
15 6 10 33 -11 53 -26 107 -29 107 -2 0 -6 -14 -10 -31z"/>
<path d="M743 1990 c-19 -30 -16 -46 5 -23 9 11 23 18 31 15 8 -3 12 1 9 9 -7
22 -32 21 -45 -1z"/>
<path d="M1530 2000 c0 -12 84 -98 155 -159 47 -40 45 -45 -10 -27 -11 4 5 -6
35 -23 30 -17 64 -30 75 -30 13 0 7 5 -15 13 -26 10 -35 18 -34 34 1 12 -3 19
-7 16 -5 -3 -9 1 -9 8 -1 7 -26 31 -56 52 -30 22 -73 59 -95 83 -21 23 -39 38
-39 33z"/>
<path d="M2155 1981 c-22 -10 -47 -26 -54 -35 -18 -21 -69 -48 -79 -42 -4 3
-14 1 -21 -3 -19 -12 56 -22 82 -10 19 8 17 9 -8 4 -29 -6 -28 -5 10 19 22 14
45 26 52 26 6 0 15 5 19 12 5 7 3 8 -6 3 -8 -5 -11 -4 -6 3 4 6 12 9 19 7 7
-3 23 4 37 15 32 25 10 25 -45 1z"/>
<path d="M997 1984 c-10 -11 -8 -26 2 -20 5 3 11 -1 14 -8 3 -8 1 -17 -6 -20
-9 -3 -9 -5 1 -5 6 -1 12 -9 12 -20 0 -19 34 -114 51 -141 5 -8 14 -25 19 -38
6 -13 20 -38 33 -55 12 -18 22 -41 22 -52 -2 -28 6 -39 16 -24 6 10 9 5 10
-16 0 -16 5 -39 10 -50 6 -14 7 -6 3 25 -3 25 -28 91 -55 147 -26 56 -63 139
-80 185 -35 90 -42 102 -52 92z"/>
<path d="M2205 1950 c-4 -6 -21 -17 -38 -25 -23 -11 -25 -13 -7 -9 46 12 70
23 70 34 0 13 -17 13 -25 0z"/>
<path d="M1470 1949 c0 -4 9 -26 19 -50 29 -65 85 -114 165 -144 74 -28 104
-27 40 1 -124 54 -163 85 -207 169 -9 17 -16 27 -17 24z"/>
<path d="M1849 1939 c-12 -7 13 -19 40 -19 24 0 61 -41 61 -68 0 -18 -6 -22
-33 -22 -18 0 -37 -4 -42 -9 -6 -5 -19 -11 -30 -13 -11 -3 4 -6 33 -9 58 -4
63 -3 30 11 -20 8 -19 9 12 9 29 1 37 6 49 32 12 27 12 33 0 40 -8 5 -17 9
-21 9 -5 0 -8 5 -8 11 0 30 -58 49 -91 28z"/>
<path d="M2005 1930 c-23 -10 -32 -19 -22 -19 20 -1 87 25 87 33 0 10 -24 5
-65 -14z"/>
<path d="M805 1867 c-4 -31 -5 -62 -2 -69 3 -7 6 1 6 19 1 18 6 44 13 58 8 18
8 29 1 36 -8 8 -13 -4 -18 -44z"/>
<path d="M1296 1893 c-4 -18 -12 -35 -17 -38 -5 -4 -9 -14 -9 -23 0 -15 2 -15
11 -2 8 11 9 8 4 -15 -3 -16 -8 -38 -11 -47 -3 -10 -1 -18 4 -18 5 0 9 6 10
13 5 44 20 106 31 126 7 13 8 21 3 17 -6 -3 -12 0 -15 6 -2 7 -7 -2 -11 -19z"/>
<path d="M1710 1887 c9 -9 94 -36 98 -32 3 3 -6 8 -19 13 -34 13 -85 25 -79
19z"/>
<path d="M5 1760 c2 -100 4 -115 18 -150 3 -8 8 -40 12 -70 14 -130 14 -128
-7 -133 -11 -3 -17 -10 -13 -16 3 -6 1 -11 -6 -11 -7 0 -10 -3 -7 -6 4 -3 21
2 38 11 31 16 32 18 26 68 -3 29 -17 120 -30 202 -14 83 -27 164 -29 180 -3
17 -4 -17 -2 -75z"/>
<path d="M2140 1840 c-85 -7 -111 -16 -104 -35 3 -7 0 -23 -6 -36 -12 -21 -11
-22 29 -15 23 3 49 2 59 -3 9 -5 42 -11 72 -15 l55 -6 -70 20 c-38 11 -82 23
-97 26 -15 4 -25 10 -22 15 7 12 61 12 68 0 3 -5 16 -7 28 -3 13 3 19 1 15 -5
-8 -13 60 -21 94 -12 13 4 20 7 14 8 -5 1 -37 6 -70 12 -33 6 -78 14 -100 18
-39 7 -38 8 22 12 33 2 59 1 56 -3 -2 -5 4 -8 14 -8 32 0 61 12 67 26 6 15 5
15 -124 4z"/>
<path d="M710 1799 c0 -11 4 -18 9 -14 13 7 25 -116 17 -171 -7 -56 11 -59 20
-4 6 37 24 67 24 40 0 -6 4 -9 9 -6 15 10 7 39 -29 108 -36 70 -50 83 -50 47z"/>
<path d="M1470 1801 c0 -51 82 -136 180 -186 34 -18 100 -37 100 -29 0 2 -35
20 -77 41 -84 40 -157 105 -185 163 -16 31 -18 32 -18 11z"/>
<path d="M991 1763 c5 -16 12 -34 15 -42 2 -8 7 -11 10 -8 8 7 -18 77 -28 77
-4 0 -3 -12 3 -27z"/>
<path d="M2629 1743 c0 -5 -1 -44 -1 -88 -1 -81 14 -141 32 -130 10 6 3 79
-10 104 -4 8 -4 28 1 44 9 33 2 77 -12 77 -5 0 -9 -3 -10 -7z"/>
<path d="M2017 1727 c-3 -9 16 -12 66 -13 77 -1 71 10 -10 19 -35 4 -53 2 -56
-6z"/>
<path d="M1483 1701 c7 -19 23 -44 37 -57 14 -12 43 -39 64 -58 39 -36 56 -44
56 -26 0 6 -4 10 -8 10 -11 0 -114 99 -140 135 l-21 30 12 -34z"/>
<path d="M1760 1715 c9 -10 9 -15 1 -15 -6 0 -11 -4 -11 -10 0 -14 73 -13 88
2 9 9 3 15 -26 25 -52 18 -68 17 -52 -2z"/>
<path d="M1212 1684 c-2 -23 1 -33 8 -29 12 7 14 65 2 65 -4 0 -9 -16 -10 -36z"/>
<path d="M2000 1676 c0 -13 14 -16 88 -15 48 0 96 4 106 8 11 4 -18 7 -65 7
-46 -1 -94 3 -106 7 -18 6 -23 5 -23 -7z"/>
<path d="M1270 1675 c0 -3 6 -21 14 -40 8 -18 11 -37 8 -41 -4 -4 -2 -4 5 0 6
3 11 15 10 26 -1 10 -5 16 -11 13 -5 -4 -7 0 -4 8 3 8 -1 20 -8 27 -8 7 -14
10 -14 7z"/>
<path d="M1964 1673 c-6 -2 -9 -14 -7 -26 8 -42 -15 -56 -110 -66 -49 -5 -94
-14 -100 -21 -10 -10 -6 -11 17 -7 l28 5 -20 -21 c-16 -16 -33 -20 -74 -20
l-53 0 38 -9 c32 -9 47 -6 98 16 33 14 74 26 90 26 19 0 28 4 23 11 -5 8 -1 8
14 0 14 -7 18 -17 15 -31 -3 -11 -1 -20 5 -20 15 0 23 42 10 57 -10 12 -4 17
14 14 10 -1 31 39 24 46 -3 4 -1 12 6 20 12 15 0 33 -18 26z"/>
<path d="M648 1653 c-11 -12 -13 -25 -8 -38 5 -11 9 -15 9 -10 1 6 5 5 9 -2 5
-7 8 4 9 27 2 46 2 46 -19 23z"/>
<path d="M1243 1559 c-1 -58 2 -99 7 -99 6 0 10 7 10 15 0 8 4 15 10 15 12 0
1 130 -14 151 -8 12 -11 -7 -13 -82z"/>
<path d="M1324 1590 c4 -67 16 -77 16 -12 0 28 -4 53 -9 56 -5 4 -8 -16 -7
-44z"/>
<path d="M1980 1602 c0 -14 37 -22 100 -21 l55 1 -50 8 c-27 4 -62 11 -77 15
-17 4 -28 3 -28 -3z"/>
<path d="M661 1549 c-15 -43 -14 -58 2 -34 12 18 21 65 12 65 -2 0 -8 -14 -14
-31z"/>
<path d="M1520 1564 c0 -4 18 -24 41 -45 23 -21 38 -43 34 -48 -4 -7 19 -23
56 -41 62 -29 86 -29 105 2 4 6 3 8 -4 4 -14 -8 -134 55 -189 101 -24 19 -43
31 -43 27z"/>
<path d="M1391 1465 c-22 -21 -30 -35 -22 -39 6 -4 9 -11 6 -16 -3 -4 -6 -34
-6 -65 -2 -61 -22 -64 -22 -3 0 18 -2 24 -4 14 -4 -15 -7 -16 -14 -5 -7 11 -8
9 -6 -6 1 -11 10 -31 20 -45 9 -13 17 -30 17 -37 0 -46 54 64 63 127 1 8 10
21 20 28 19 15 23 33 5 30 -7 -2 -14 9 -17 23 l-6 26 -34 -32z m29 -12 c0 -5
-4 -15 -9 -22 -6 -9 -6 -22 0 -33 7 -13 6 -18 -5 -18 -8 0 -17 -6 -20 -12 -6
-14 2 45 10 75 5 16 24 25 24 10z"/>
<path d="M1537 1468 c42 -76 53 -86 104 -97 66 -14 78 -13 55 4 -10 8 -37 17
-60 20 -36 6 -46 13 -70 51 -34 53 -54 69 -29 22z"/>
<path d="M1330 1474 c-14 -7 -20 -14 -15 -14 23 -1 -22 -20 -47 -20 -19 0 -28
-5 -28 -16 0 -13 3 -14 14 -5 8 6 18 11 22 9 18 -4 50 13 67 37 10 14 17 25
15 24 -2 -1 -14 -7 -28 -15z"/>
<path d="M1193 1373 c-2 -49 2 -72 13 -84 13 -14 13 -20 2 -38 -14 -23 -3 -51
23 -59 8 -2 5 2 -5 10 -22 18 -15 54 9 44 9 -3 15 1 15 10 0 10 6 14 15 10 18
-7 19 3 1 27 -15 19 -36 23 -36 6 0 -8 -4 -8 -14 0 -11 9 -13 28 -9 77 3 35 1
64 -3 64 -5 0 -10 -30 -11 -67z"/>
<path d="M525 1395 c-16 -14 -36 -25 -42 -25 -7 0 -13 -5 -13 -10 0 -13 20 -3
69 34 19 14 31 26 25 26 -5 -1 -22 -12 -39 -25z"/>
<path d="M1276 1401 c-4 -6 -12 -9 -17 -6 -5 4 -9 -4 -8 -17 0 -13 3 -18 5
-11 3 7 11 10 19 7 17 -7 26 8 16 25 -6 9 -10 10 -15 2z"/>
<path d="M981 1340 c-24 -22 -48 -37 -54 -33 -5 3 -7 1 -3 -5 3 -6 -31 -43
-78 -84 -46 -40 -87 -79 -90 -87 -8 -18 9 -4 73 58 25 24 78 71 116 104 59 51
95 88 83 87 -2 -1 -23 -19 -47 -40z"/>
<path d="M2440 1313 c-6 -32 -13 -63 -15 -70 -2 -6 3 -14 11 -17 10 -4 14 3
16 27 0 18 2 37 3 42 2 6 3 22 4 37 1 23 6 27 39 31 l37 4 -42 1 -42 2 -11
-57z"/>
<path d="M1273 1343 c-20 -7 -15 -23 7 -23 13 0 18 -5 14 -15 -4 -8 -2 -15 3
-15 13 0 13 37 0 48 -7 5 -18 7 -24 5z"/>
<path d="M465 1320 c-10 -11 -21 -17 -25 -15 -7 4 -45 -20 -75 -48 -19 -17 70
27 91 45 11 10 25 18 32 18 6 0 14 5 17 10 11 18 -22 10 -40 -10z"/>
<path d="M1533 1304 c-10 -18 -9 -24 6 -38 21 -19 38 -22 23 -3 -5 6 -12 23
-14 37 -3 25 -4 25 -15 4z"/>
<path d="M331 1283 c-11 -22 -66 -55 -75 -46 -3 3 -6 0 -6 -8 -1 -15 -76 -66
-92 -61 -5 1 -7 -2 -4 -7 4 -5 -2 -14 -11 -20 -10 -6 -14 -11 -10 -11 9 0 76
45 151 102 28 20 53 35 57 32 4 -2 10 0 14 6 3 5 1 10 -5 10 -6 0 -8 5 -5 10
3 6 4 10 1 10 -3 0 -10 -8 -15 -17z"/>
<path d="M1450 1255 c14 -16 71 -47 77 -41 2 2 -17 15 -43 30 -25 14 -41 19
-34 11z"/>
<path d="M1591 1253 c-1 -7 -9 -13 -18 -13 -15 0 -15 -2 -4 -9 14 -9 49 -7 59
4 3 3 -2 5 -10 5 -9 0 -19 6 -21 13 -4 10 -6 10 -6 0z"/>
<path d="M1000 1220 c-6 -11 -16 -20 -23 -20 -7 0 -23 -17 -36 -38 -21 -34
-19 -33 33 18 31 30 56 56 56 57 0 11 -21 -1 -30 -17z"/>
<path d="M1404 1231 c9 -15 73 -41 98 -40 16 0 9 6 -24 17 -26 9 -50 20 -54
25 -10 10 -26 9 -20 -2z"/>
<path d="M1250 1214 c0 -9 13 -29 28 -43 39 -35 44 -54 27 -102 -9 -23 -17
-51 -19 -63 -3 -12 -14 -60 -25 -109 -12 -49 -19 -106 -17 -130 3 -23 5 -42 6
-42 1 0 3 -11 6 -23 5 -31 63 -97 133 -152 79 -63 268 -287 271 -320 3 -52 70
-183 85 -168 8 8 -13 58 -25 58 -5 0 -10 8 -10 17 0 13 3 14 12 5 7 -7 19 -12
27 -12 10 0 5 7 -12 19 -34 22 -67 73 -67 103 0 22 -82 130 -197 258 -24 26
-39 51 -35 55 4 5 3 6 -3 3 -16 -10 -118 75 -142 118 -31 54 -29 95 16 274 46
180 48 220 11 236 -17 7 -29 8 -37 1 -9 -7 -13 -5 -13 6 0 9 -4 19 -10 22 -5
3 -10 -2 -10 -11z"/>
<path d="M2420 1202 c0 -21 26 -82 34 -82 2 0 0 19 -6 43 -11 49 -28 73 -28
39z"/>
<path d="M1395 1175 c38 -16 157 -31 135 -16 -8 5 -17 8 -22 5 -4 -3 -34 2
-67 11 -70 18 -87 18 -46 0z"/>
<path d="M1593 1174 c0 -8 10 -14 21 -14 21 0 53 -36 48 -54 -2 -5 4 -16 11
-25 8 -9 17 -32 21 -51 5 -31 1 -43 -33 -87 -39 -53 -75 -120 -84 -160 -3 -16
5 -35 26 -62 94 -115 115 -144 150 -199 20 -33 37 -71 37 -85 0 -18 10 -33 33
-48 39 -27 76 -69 77 -87 0 -7 -7 -26 -15 -42 -9 -18 -11 -31 -5 -35 14 -9 12
-81 -2 -92 -7 -5 -40 -16 -73 -23 -51 -11 -56 -14 -35 -20 14 -4 36 -5 50 -2
l25 5 -25 -22 c-19 -16 -14 -15 22 6 46 27 94 95 82 115 -3 4 -1 8 5 8 5 0 12
-8 14 -17 3 -10 5 1 6 25 1 32 -3 42 -15 42 -11 0 -14 6 -9 20 4 12 -1 31 -13
48 -11 15 -22 36 -26 48 -3 11 -16 31 -28 44 -22 23 -28 55 -15 77 9 14 -5 49
-33 83 -15 19 -21 45 -25 110 -6 103 -12 138 -31 168 -8 12 -14 28 -13 35 6
29 -25 157 -50 204 -5 10 -15 32 -22 48 -7 17 -14 31 -15 33 -1 1 -15 6 -31
11 -23 7 -30 5 -30 -5z m127 -274 c0 -10 7 -37 15 -60 8 -24 18 -75 21 -114 3
-39 7 -82 8 -96 3 -27 21 -66 41 -90 16 -18 27 -80 14 -80 -4 0 -16 15 -25 33
-26 51 -87 141 -101 150 -7 4 -13 14 -13 21 0 7 -9 21 -21 32 -12 10 -30 31
-41 46 -19 27 -19 28 3 80 12 29 33 68 47 86 19 26 27 31 38 21 8 -6 14 -19
14 -29z"/>
<path d="M1360 1120 c0 -5 8 -10 18 -10 9 0 35 -3 57 -5 38 -5 37 -5 -10 9
-61 18 -65 19 -65 6z"/>
<path d="M714 1099 c-10 -12 -41 -37 -69 -54 -62 -41 -100 -80 -86 -90 11 -6
13 -5 15 18 0 6 6 12 12 12 14 0 154 116 154 127 0 12 -5 10 -26 -13z"/>
<path d="M91 1070 c-30 -21 -56 -42 -60 -46 -9 -11 20 6 54 31 17 12 44 29 60
38 17 9 23 16 14 17 -8 0 -39 -18 -68 -40z"/>
<path d="M1390 1073 c19 -8 58 -17 85 -19 l50 -4 -60 13 c-33 8 -71 16 -85 20
-14 4 -10 0 10 -10z"/>
<path d="M2275 1010 c45 -12 142 -20 125 -11 -8 5 -46 11 -85 14 -43 3 -59 2
-40 -3z"/>
<path d="M1380 1000 c25 -8 167 -13 159 -6 -2 2 -44 6 -94 8 -49 3 -79 2 -65
-2z"/>
<path d="M2466 930 c3 -30 6 -82 7 -115 2 -53 4 -60 22 -58 11 1 34 -2 51 -6
18 -5 38 -5 45 0 12 7 11 9 -1 10 -89 8 -92 11 -95 86 -4 95 -4 98 -19 119
-13 17 -14 14 -10 -36z"/>
<path d="M701 911 c-17 -22 -26 -38 -19 -37 24 3 37 17 31 31 -3 8 -1 15 5 15
5 0 12 7 16 15 9 24 0 18 -33 -24z"/>
<path d="M1445 940 l-40 -7 35 -1 c19 0 46 4 60 8 32 10 2 10 -55 0z"/>
<path d="M502 907 c-12 -13 -19 -27 -15 -31 4 -4 -6 -18 -22 -31 -17 -13 -27
-27 -23 -31 4 -4 19 6 33 22 45 51 47 54 34 54 -7 0 -5 8 6 20 25 28 13 25
-13 -3z"/>
<path d="M1395 899 c-75 -17 -77 -18 -24 -14 30 3 73 11 95 19 52 19 27 17
-71 -5z"/>
<path d="M1385 840 c-27 -10 -43 -18 -35 -18 8 0 38 8 65 18 28 10 43 18 35
18 -8 0 -37 -8 -65 -18z"/>
<path d="M1825 800 c-8 -37 -1 -48 19 -31 16 13 15 36 -1 52 -8 8 -13 2 -18
-21z"/>
<path d="M1513 759 c-18 -12 -33 -22 -33 -24 0 -8 37 8 60 25 33 26 13 25 -27
-1z"/>
<path d="M1560 753 c0 -6 -19 -21 -42 -33 -37 -19 -39 -21 -13 -16 28 6 29 5
11 -9 -11 -8 -35 -15 -54 -15 -18 0 -31 -4 -28 -8 3 -5 -4 -8 -14 -8 -11 1
-18 -3 -17 -9 1 -5 27 -10 58 -10 54 0 55 0 35 -18 -12 -10 -14 -15 -6 -11 26
12 50 36 45 45 -3 4 -1 10 4 14 6 3 8 12 4 21 -3 8 3 24 12 34 10 11 15 23 12
27 -4 3 -7 2 -7 -4z"/>
<path d="M1371 720 c-19 -5 -40 -6 -48 -3 -7 3 -13 0 -13 -6 0 -16 60 -13 90
4 28 16 22 17 -29 5z"/>
<path d="M2554 673 c-4 -21 -13 -45 -20 -54 -12 -13 -11 -18 6 -37 11 -12 37
-25 58 -30 20 -5 105 -26 187 -46 83 -21 165 -41 183 -46 17 -4 32 -4 32 1 0
14 -34 28 -74 31 -20 1 -36 6 -36 11 0 4 -5 5 -11 1 -6 -3 -21 -2 -32 4 -24
11 -65 22 -177 47 -84 19 -130 36 -130 47 0 5 5 8 10 8 6 0 10 11 10 24 0 14
4 36 10 50 6 16 6 26 0 26 -5 0 -12 -17 -16 -37z"/>
<path d="M1820 686 c0 -9 69 -36 92 -36 12 0 17 -4 12 -12 -5 -8 -2 -9 10 -5
10 4 27 7 39 8 12 0 16 3 9 6 -6 2 -10 9 -6 14 3 5 -5 5 -19 0 -14 -6 -27 -7
-30 -4 -3 2 -20 8 -39 13 -18 4 -41 11 -50 15 -10 4 -18 4 -18 1z"/>
<path d="M1363 643 c20 -14 37 -30 37 -34 0 -10 52 -27 68 -22 20 7 3 23 -25
23 -15 0 -36 12 -53 30 -15 17 -36 30 -46 30 -13 0 -8 -8 19 -27z"/>
<path d="M1856 606 c-18 -8 -23 -15 -15 -18 19 -6 92 16 83 25 -10 10 -34 7
-68 -7z"/>
<path d="M373 595 c4 -5 -18 -36 -50 -68 -32 -33 -51 -56 -42 -51 9 5 38 32
63 61 33 37 43 54 34 59 -7 4 -10 3 -5 -1z"/>
<path d="M1061 533 c-17 -25 -31 -51 -31 -57 0 -6 -11 -28 -25 -49 -14 -20
-21 -37 -15 -37 6 0 13 8 17 18 4 9 19 36 35 60 16 23 26 42 22 42 -4 0 0 8 8
18 15 17 31 52 24 52 -2 0 -18 -21 -35 -47z"/>
<path d="M1487 537 c53 -32 83 -42 83 -28 0 6 -7 11 -15 11 -8 0 -15 4 -15 9
0 5 -12 11 -27 14 -16 3 -37 9 -48 12 -11 4 -1 -4 22 -18z"/>
<path d="M1604 525 c-19 -14 -19 -14 2 -15 12 0 27 7 34 15 17 20 -9 21 -36 0z"/>
<path d="M1742 474 c17 -32 33 -53 35 -47 6 16 -20 64 -46 87 -16 15 -14 6 11
-40z"/>
<path d="M1890 482 c0 -28 69 -58 78 -33 3 9 0 11 -7 6 -7 -4 -20 0 -29 7 -26
23 -42 30 -42 20z"/>
<path d="M1702 363 c15 -19 68 -43 92 -43 19 1 18 3 -6 16 -34 18 -35 23 -4
17 13 -3 27 0 30 6 5 7 -2 11 -16 12 -13 0 -42 1 -65 2 -32 2 -39 -1 -31 -10z"/>
<path d="M527 305 c-16 -21 -37 -35 -49 -35 -17 0 -19 3 -10 12 26 26 10 24
-18 -2 -24 -22 -36 -26 -69 -23 -43 4 -59 -8 -36 -27 9 -8 15 -8 15 -2 0 11
18 11 36 -1 16 -9 23 -52 12 -71 -7 -12 -16 -15 -31 -10 -17 5 -19 4 -10 -6 6
-7 9 -20 6 -29 -4 -11 -1 -10 10 4 13 15 16 16 17 5 0 -13 1 -13 10 0 6 9 10
10 10 3 0 -19 -12 -43 -22 -43 -5 0 -7 4 -4 9 4 5 -2 7 -13 4 -28 -7 -36 45
-10 73 20 22 26 54 9 54 -5 0 -10 -10 -10 -22 0 -17 -3 -19 -9 -9 -7 11 -9 11
-14 0 -3 -11 -9 -11 -23 -3 -24 15 -21 49 8 89 l21 30 -22 -20 c-13 -11 -35
-20 -50 -21 -15 0 -31 -3 -36 -5 -11 -7 -53 -4 -75 4 -47 17 -70 14 -97 -15
-15 -16 -21 -27 -13 -23 11 4 16 -1 17 -16 1 -12 6 -26 12 -32 6 -6 4 -18 -6
-34 -12 -18 -13 -27 -4 -36 8 -8 11 -6 11 11 0 30 33 29 49 0 6 -13 9 -15 7
-6 -4 14 1 17 27 15 18 -2 38 -7 46 -11 10 -6 12 -5 7 2 -4 7 -2 12 3 12 6 0
11 -9 11 -21 0 -18 -5 -20 -38 -18 -21 2 -43 0 -49 -4 -7 -4 -16 0 -21 10 -9
15 -11 15 -28 -2 -13 -13 -15 -20 -6 -23 7 -2 10 -9 6 -15 -3 -7 2 -3 11 8 12
13 19 16 22 8 3 -10 9 -10 24 0 15 9 21 9 27 0 5 -7 13 -9 21 -3 8 4 24 5 36
0 12 -5 28 -4 35 0 17 11 32 3 24 -13 -3 -7 0 -5 8 3 16 18 120 19 141 1 11
-9 17 -8 26 3 8 10 21 12 44 6 18 -4 39 -5 47 -4 8 2 28 7 44 10 25 6 28 4 23
-10 -4 -10 -3 -15 3 -11 15 9 53 17 75 15 11 -1 26 -2 33 -2 6 -1 12 -5 12
-10 0 -4 6 -7 12 -5 24 4 37 25 31 47 -5 17 -3 21 7 15 9 -6 11 -4 5 5 -6 10
-4 12 7 7 11 -4 18 2 22 19 4 15 11 22 18 18 7 -4 8 -3 4 5 -5 7 4 28 20 49
l27 37 -36 -34 c-20 -19 -36 -37 -35 -40 2 -18 -3 -33 -9 -28 -3 4 -12 2 -20
-5 -11 -9 -12 -7 -7 7 7 17 6 17 -20 0 -20 -14 -30 -15 -39 -6 -8 8 -6 11 9
12 10 1 22 1 27 0 14 -2 11 63 -5 92 -6 12 -13 15 -21 9 -31 -25 -99 0 -81 30
6 10 3 9 -9 -1 -9 -7 -17 -11 -17 -7 0 3 -17 -1 -37 -9 -45 -17 -103 -26 -103
-16 0 4 11 22 25 41 24 32 28 40 23 40 -2 0 -16 -16 -31 -35z m-27 -80 c0 -41
-32 -59 -58 -33 -17 17 -15 47 3 54 8 4 12 11 9 16 -4 6 5 2 20 -7 14 -10 26
-23 26 -30z m-342 19 c64 -11 88 -11 100 -2 14 12 13 13 17 -29 1 -18 -1 -33
-6 -33 -5 0 -9 10 -10 23 l0 22 -9 -22 c-12 -30 -69 -30 -71 1 -2 21 -2 21 -6
0 -3 -18 -11 -22 -40 -20 -20 0 -38 7 -41 14 -2 6 1 12 7 12 6 0 11 -4 11 -10
0 -5 5 -10 10 -10 18 0 11 18 -10 25 -11 3 -20 12 -20 20 0 14 20 25 33 18 5
-3 20 -7 35 -9z m532 -26 c13 -33 13 -33 19 -8 4 17 13 25 28 25 13 0 22 -3
20 -6 -1 -3 4 -13 12 -22 16 -20 19 -19 -51 -22 -50 -2 -58 0 -58 15 0 23 -37
15 -43 -9 -3 -9 -5 1 -6 22 -1 36 0 37 33 37 29 0 36 -5 46 -32z m-145 12 c5
-8 11 -7 20 0 18 15 35 4 35 -21 0 -23 -32 -39 -38 -20 -4 11 -6 11 -13 0 -6
-10 -9 -8 -9 9 0 12 -4 22 -10 22 -5 0 -10 -9 -10 -20 0 -11 -4 -20 -10 -20
-12 0 -12 2 0 34 10 27 24 33 35 16z m42 -73 c11 4 14 3 9 -6 -5 -7 -14 -10
-22 -7 -17 6 -19 -20 -2 -30 7 -4 8 -3 4 4 -4 7 -3 12 2 12 6 0 13 -7 16 -15
8 -21 -22 -31 -45 -17 -10 7 -22 12 -26 12 -5 0 -2 -4 5 -9 11 -7 10 -9 -3
-14 -10 -5 -19 1 -25 16 -7 17 -9 18 -9 5 -1 -10 -6 -18 -12 -18 -6 0 -9 9 -6
20 3 11 1 20 -4 20 -5 0 -10 -10 -10 -22 -1 -21 -2 -21 -6 -3 -3 11 -10 24
-17 28 -13 9 90 1 107 -9 7 -4 9 -4 5 1 -4 4 -2 17 4 29 7 12 13 16 15 9 3 -7
11 -9 20 -6z m-245 -46 c3 -18 0 -27 -5 -24 -6 3 -23 6 -38 5 -21 0 -29 4 -30
16 0 14 -2 13 -9 -3 -8 -19 -9 -19 -9 3 -1 20 3 22 34 20 19 -1 37 1 41 5 11
10 11 10 16 -22z m315 23 c14 -4 20 -11 16 -18 -5 -7 -2 -7 8 1 8 6 37 11 65
10 45 -1 51 -3 46 -19 -6 -23 -53 -21 -64 2 -5 11 -7 10 -7 -5 -1 -17 -3 -17
-11 -5 -6 9 -10 10 -10 3 0 -14 -77 -15 -86 -1 -7 11 2 38 13 38 4 0 18 -3 30
-6z"/>
<path d="M450 221 c0 -11 4 -22 9 -25 12 -8 34 21 26 34 -11 17 -35 11 -35 -9z"/>
<path d="M1705 308 c-10 -28 -6 -80 6 -92 5 -6 7 3 4 22 -3 30 -2 31 18 20 12
-6 27 -18 34 -27 7 -9 12 -11 13 -4 0 15 -25 40 -50 48 -23 7 -26 21 -7 28 9
3 9 8 1 16 -9 9 -13 7 -19 -11z"/>
<path d="M840 103 c0 -5 -9 -19 -20 -31 -12 -12 -17 -22 -12 -22 5 0 15 6 22
14 6 8 18 12 26 9 19 -7 18 11 -1 27 -8 7 -15 8 -15 3z"/>
<path d="M1932 84 c-1 -12 -4 -37 -7 -55 -5 -31 -5 -32 5 -9 6 13 9 38 7 55
-2 18 -4 21 -5 9z"/>
</g>
</svg>
